<svg height="512pt" viewBox="-46 0 512 512" width="512pt" xmlns="http://www.w3.org/2000/svg"><path fill="#DC222F" d="M210 0C94.207 0 0 94.207 0 210c0 93.36 61.52 175.21 150.441 201.426l46.141 92.281a14.997 14.997 0 0026.832 0l46.14-92.277C358.48 385.215 420 303.363 420 210 420 94.207 325.793 0 210 0zm45.355 384.238a14.984 14.984 0 00-9.648 7.809L210 463.46l-35.707-71.414a15.002 15.002 0 00-9.648-7.813C85.367 363.664 30 292.016 30 210c0-99.254 80.746-180 180-180s180 80.746 180 180c0 82.016-55.367 153.664-134.645 174.238zm0 0"/><path fill="#DC222F" d="M210 150c-33.086 0-60 26.914-60 60s26.914 60 60 60 60-26.914 60-60-26.914-60-60-60zm0 90c-16.543 0-30-13.457-30-30s13.457-30 30-30 30 13.457 30 30-13.457 30-30 30zm0 0"/></svg>