<svg height="512pt" viewBox="-46 0 512 512" width="512pt" xmlns="http://www.w3.org/2000/svg"><g fill-rule="evenodd" fill="#DC222F"><path d="M210 0C94.207 0 0 94.207 0 210c0 93.36 61.52 175.21 150.441 201.43l46.141 92.277a14.999 14.999 0 0026.832 0l46.14-92.277C358.48 385.215 420 303.36 420 210 420 94.207 325.793 0 210 0zm45.355 384.238a14.984 14.984 0 00-9.648 7.809L210 463.46l-35.707-71.414a14.984 14.984 0 00-9.648-7.809C85.367 363.66 30 292.016 30 210c0-99.254 80.746-180 180-180s180 80.746 180 180c0 82.016-55.367 153.664-134.645 174.238zm0 0"/><path d="M290.328 147.5H158.383l-5.125-23.23a15 15 0 00-14.649-11.77h-20.886c-8.285 0-15 6.715-15 15s6.715 15 15 15h8.836l23.867 108.23a15 15 0 0014.648 11.77h86.29a14.994 14.994 0 0013.632-8.75l38.969-85a14.993 14.993 0 00-1.012-14.352 14.994 14.994 0 00-12.625-6.898zm-48.59 85h-64.61l-12.132-55h101.957zm-71.41 42c-8.262 0-15 6.738-15 15s6.738 15 15 15 15-6.738 15-15-6.738-15-15-15zm75 0c-8.262 0-15 6.738-15 15s6.738 15 15 15 15-6.738 15-15-6.738-15-15-15zm0 0"/></g></svg>