<svg height="511pt" viewBox="0 -31 512 511" width="511pt" xmlns="http://www.w3.org/2000/svg"><path d="M490.617 240.492h6.367c8.286 0 15-6.715 15-15 0-8.281-6.714-15-15-15h-6.367l19.692-38.113c5.148-9.965-2.094-21.883-13.325-21.883H438.16c-14.605-41.176-41.45-77.969-76.472-104.484C322.363 16.238 275.44.5 225.992.5 101.38.5 0 101.434 0 225.492c0 124.063 101.379 224.992 225.992 224.992 49.45 0 96.371-15.734 135.696-45.507 35.023-26.516 61.867-63.309 76.472-104.485h58.824c11.215 0 18.48-11.91 13.325-21.887zm-33.765-30h-56.594l15-29.996h57.094zm-126.938 0c-7.3-50.812-51.117-89.996-103.922-89.996-57.894 0-104.996 47.102-104.996 104.996 0 57.895 47.102 104.996 104.996 104.996 52.805 0 96.621-39.18 103.922-89.996h30.238c-7.488 67.403-64.793 119.996-134.16 119.996-74.437 0-134.996-60.558-134.996-134.996S151.555 90.496 225.992 90.496c69.367 0 126.672 52.594 134.16 119.996zm-61.504 0c-6.191-17.457-22.863-29.996-42.418-29.996-24.812 0-44.996 20.184-44.996 44.996s20.184 45 44.996 45c19.555 0 36.227-12.543 42.418-30h31.07c-6.964 34.192-37.27 60-73.488 60-41.351 0-74.996-33.644-74.996-75 0-41.351 33.645-74.996 74.996-74.996 36.219 0 66.52 25.805 73.488 59.996zm-27.418 15c0 8.27-6.726 15-15 15-8.27 0-15-6.73-15-15s6.73-15 15-15c8.274 0 15 6.73 15 15zm-15 194.996C117.922 420.488 30 333.012 30 225.492 30 117.972 117.922 30.5 225.992 30.5c78.766 0 150.098 48.434 180.04 119.996h-.044a15.007 15.007 0 00-13.418 8.29l-8.953 17.905c-20.855-67.23-83.629-116.195-157.625-116.195C135.016 60.496 61 134.516 61 225.492c0 90.98 74.016 164.996 164.992 164.996 73.996 0 136.77-48.965 157.625-116.191l8.953 17.902a15.003 15.003 0 0013.418 8.293h.043c-29.941 71.559-101.273 119.996-180.039 119.996zm189.266-149.996l-15-30h56.594l15.5 30zm0 0"/></svg>