<svg height="512pt" viewBox="0 0 512 512" width="512pt" xmlns="http://www.w3.org/2000/svg"><path d="M302 0C186.207 0 92 94.207 92 210c0 41.648 12.188 80.5 33.18 113.184L4.395 443.973C1.578 446.785 0 450.602 0 454.578s1.578 7.793 4.395 10.606l42.421 42.421A14.955 14.955 0 0057.422 512c3.84 0 7.68-1.465 10.605-4.395l120.79-120.789C221.5 407.812 260.351 420 302 420c115.793 0 210-94.207 210-210S417.793 0 302 0zM57.422 475.785l-21.207-21.207 64.574-64.574 21.207 21.207zm85.789-85.789l-21.207-21.207 21.344-21.348a211.528 211.528 0 0021.21 21.211zM302 390c-99.254 0-180-80.746-180-180S202.746 30 302 30s180 80.746 180 180-80.746 180-180 180zm0 0"/><path d="M302 60c-82.71 0-150 67.29-150 150s67.29 150 150 150 150-67.29 150-150S384.71 60 302 60zm0 270c-66.168 0-120-53.832-120-120S235.832 90 302 90s120 53.832 120 120-53.832 120-120 120zm0 0"/><path d="M351.395 169.395L287 233.785l-34.395-34.39c-5.855-5.86-15.355-5.86-21.21 0-5.86 5.859-5.86 15.355 0 21.21l45 45c5.855 5.86 15.355 5.86 21.21 0l75-75c5.86-5.855 5.86-15.351 0-21.21-5.855-5.86-15.355-5.86-21.21 0zm0 0"/></svg>