<svg height="511pt" viewBox="-32 0 511 511.999" width="511pt" xmlns="http://www.w3.org/2000/svg"><path d="M445.316 248.242A14.995 14.995 0 00432.48 241c-44.296 0-84.851 22.77-107.945 60H146.637c-20.032 0-38.867 7.8-53.032 21.969l-88.714 88.71c-5.852 5.856-5.856 15.356 0 21.216 36.43 36.425 74.66 74.375 75.043 74.75 5.855 5.816 15.304 5.8 21.148-.012L157.977 451h125.66c39.191 0 74.832-21.559 93-56.262.457-.87 45.89-87.574 69.117-131.758a14.996 14.996 0 00-.438-14.738zM350.062 380.82c-12.976 24.785-38.43 40.18-66.425 40.18H151.785c-3.969 0-7.773 1.57-10.582 4.367l-50.715 50.48a32205.833 32205.833 0 01-53.773-53.566l78.101-78.101c8.5-8.5 19.801-13.18 31.82-13.18h161.798l-11.512 21.965A14.954 14.954 0 01283.637 361H181.785c-8.285 0-15 6.715-15 15s6.715 15 15 15h101.852c16.789 0 32.062-9.238 39.86-24.11.01-.027 23.151-44.18 23.151-44.18 12.563-23.765 34-40.82 59.043-47.972-23.933 45.594-55.246 105.356-55.629 106.082zm0 0"/><path d="M136.785 271h180c8.281 0 15-6.715 15-15V75c0-8.285-6.719-15-15-15h-45V45c0-24.813-20.187-45-45-45s-45 20.188-45 45v15h-45c-8.285 0-15 6.715-15 15v181c0 8.285 6.715 15 15 15zm75-226c0-8.27 6.727-15 15-15 8.27 0 15 6.73 15 15v15h-30zm-60 45h30v15c0 8.285 6.715 15 15 15 8.281 0 15-6.715 15-15V90h30v15c0 8.285 6.715 15 15 15 8.281 0 15-6.715 15-15V90h30v151h-150zm0 0"/></svg>