<svg height="512" width="512" xmlns="http://www.w3.org/2000/svg"><path d="M507.608 110.339L401.665 4.399c-5.857-5.857-15.355-5.857-21.212 0L58.131 326.639a15.003 15.003 0 00-3.611 5.825L.805 492.19c-3.942 11.723 7.259 22.945 18.998 18.998l159.73-53.713a14.995 14.995 0 005.825-3.611l322.25-322.313c5.854-5.854 5.857-15.355 0-21.212zm-174.54-16.204l31.795 31.794-230.2 230.193c-6.627-14.183-18.511-25.223-32.712-30.876zM38.865 473.128l14.677-43.642 28.967 28.966zm75.392-25.352l-50.039-50.037 15.717-46.735c17.961.199 32.263 15.94 30.21 34.272-1.072 9.568 7.037 17.651 16.576 16.576 18.348-2.058 34.076 12.268 34.274 30.208zm72.495-37.73c-5.665-14.233-16.724-26.099-30.876-32.713l230.2-230.193 31.795 31.794zm252.295-252.359l-84.73-84.728 36.742-36.741 84.731 84.728z"/></svg>